<?xml version="1.0" encoding="UTF-8" standalone="no"?>
<!-- Created with Inkscape (http://www.inkscape.org/) -->

<svg
   xmlns:dc="http://purl.org/dc/elements/1.1/"
   xmlns:cc="http://creativecommons.org/ns#"
   xmlns:rdf="http://www.w3.org/1999/02/22-rdf-syntax-ns#"
   xmlns:svg="http://www.w3.org/2000/svg"
   xmlns="http://www.w3.org/2000/svg"
   xmlns:sodipodi="http://sodipodi.sourceforge.net/DTD/sodipodi-0.dtd"
   xmlns:inkscape="http://www.inkscape.org/namespaces/inkscape"
   width="104.16306mm"
   height="103.18828mm"
   viewBox="0 0 104.16306 103.18828"
   version="1.1"
   id="svg2399"
   inkscape:version="0.92.4 (5da689c313, 2019-01-14)"
   sodipodi:docname="logo.svg">
  <defs
     id="defs2393" />
  <sodipodi:namedview
     id="base"
     pagecolor="#ffffff"
     bordercolor="#666666"
     borderopacity="1.0"
     inkscape:pageopacity="0.0"
     inkscape:pageshadow="2"
     inkscape:zoom="1.4"
     inkscape:cx="289.19162"
     inkscape:cy="213.91686"
     inkscape:document-units="mm"
     inkscape:current-layer="layer1"
     showgrid="false"
     inkscape:window-width="2466"
     inkscape:window-height="1414"
     inkscape:window-x="2014"
     inkscape:window-y="0"
     inkscape:window-maximized="1" />
  <metadata
     id="metadata2396">
    <rdf:RDF>
      <cc:Work
         rdf:about="">
        <dc:format>image/svg+xml</dc:format>
        <dc:type
           rdf:resource="http://purl.org/dc/dcmitype/StillImage" />
        <dc:title></dc:title>
      </cc:Work>
    </rdf:RDF>
  </metadata>
  <g
     inkscape:label="Layer 1"
     inkscape:groupmode="layer"
     id="layer1"
     transform="translate(-15.198234,-54.90586)">
    <path
       sodipodi:nodetypes="sssssssssssssssssssssssss"
       inkscape:connector-curvature="0"
       id="path1055"
       d="m 114.51855,137.38844 c -1.47357,2.55321 -1.74033,6.67353 -5.79211,8.93831 -4.05177,2.26477 -8.1066,1.95432 -13.26351,3.69748 -5.1569,1.74317 -11.41586,5.53995 -16.20482,6.52833 -4.78895,0.9884 -9.02567,1.54112 -11.9736,1.54158 -2.94794,4.6e-4 -7.18482,-0.55094 -11.97408,-1.53784 -4.78927,-0.9869 -11.0494,-4.78172 -16.20684,-6.52328 -5.15745,-1.74155 -9.2122,-1.42986 -13.26468,-3.69336 -4.05247,-2.26352 -4.32053,-6.38375 -5.7949,-8.93651 -1.47436,-2.55277 -4.90928,-4.84395 -4.84474,-9.48528 0.0645,-4.64132 2.36081,-7.9977 3.42964,-13.33529 1.06882,-5.33758 0.9102,-12.65638 2.4487,-17.29794 1.53851,-4.64155 3.1782,-8.58701 4.65177,-11.14023 1.47357,-2.55321 4.06954,-5.94677 7.31885,-9.60094 3.24931,-3.65417 9.66579,-7.1782 13.75274,-10.77389 4.08696,-3.5957 5.84439,-7.26307 9.83089,-9.64086 3.9865,-2.3778 7.68875,-0.54982 10.63669,-0.55028 2.94793,-4.6e-4 6.64962,-1.82959 10.63686,0.54697 3.98723,2.37655 5.74581,6.04337 9.83388,9.63779 4.08808,3.59443 10.50565,7.11646 13.75611,10.76962 3.25045,3.65315 5.84747,7.0459 7.32183,9.59865 1.47437,2.55277 3.11529,6.49771 4.65524,11.13878 1.53995,4.64108 1.3836,11.95993 2.45409,17.29718 1.07048,5.33726 3.3678,8.69292 3.43379,13.33423 0.066,4.6413 -3.36823,6.93356 -4.8418,9.48678 z"
       inkscape:transform-center-y="4.8341418"
       inkscape:transform-center-x="1.1612568"
       style="opacity:1;fill:#fb99e5;stroke:none;stroke-width:0.23461914;fill-opacity:1" />
    <path
       id="path1057"
       d="m 60.27173,54.94765 c -1.17592,0.10577 -2.39407,0.43794 -3.63985,1.181 -3.9865,2.37779 -5.74375,6.04542 -9.83071,9.64112 1.55617,0.23445 3.71058,0.54669 6.10468,0.85925 2.3941,0.31255 5.02746,0.62499 7.54125,0.85929 2.5138,0.23431 4.90797,0.39055 6.82321,0.39025 1.91524,-3e-4 4.30932,-0.15721 6.82303,-0.39229 2.51373,-0.23509 5.14701,-0.54847 7.54101,-0.86177 2.39401,-0.3133 4.54889,-0.62641 6.10499,-0.86135 -4.08807,-3.59442 -5.84657,-7.26128 -9.83381,-9.63783 -3.98723,-2.37656 -7.68895,-0.54709 -10.63688,-0.54663 -2.02671,3.1e-4 -4.4099,-0.86373 -6.99692,-0.63104 z M 18.6291,114.58233 c -1.06883,5.3376 -3.36544,8.69422 -3.42997,13.33554 -0.0645,4.64133 3.37068,6.93269 4.84505,9.48545 1.47436,2.55276 1.74239,6.6727 5.79486,8.93622 4.05248,2.2635 8.10736,1.95186 13.2648,3.69341 -0.57504,-1.46491 -1.38204,-3.48696 -2.30841,-5.71659 -0.92637,-2.22963 -1.97261,-4.66676 -3.0266,-6.96093 -1.05398,-2.29415 -2.11576,-4.44532 -3.07364,-6.10382 -0.95788,-1.65849 -2.29048,-3.65367 -3.75093,-5.71308 -1.46045,-2.0594 -3.04883,-4.18309 -4.51715,-6.09971 -1.46833,-1.91662 -2.8165,-3.62634 -3.79801,-4.85649 z m 97.29759,-0.0149 c -0.98112,1.23046 -2.32905,2.9403 -3.79679,4.85738 -1.46772,1.91708 -3.0554,4.0413 -4.51521,6.10116 -1.4598,2.05985 -2.79217,4.05529 -3.74953,5.71409 -0.95736,1.65879 -2.01835,3.81032 -3.07162,6.10481 -1.05327,2.29448 -2.09865,4.73213 -3.02433,6.96204 -0.92568,2.22993 -1.73191,4.25219 -2.3065,5.71728 5.1569,-1.74316 9.21205,-1.43241 13.26381,-3.69719 4.05178,-2.26478 4.31831,-6.38508 5.79188,-8.9383 1.47357,-2.55322 4.90781,-4.84592 4.84182,-9.48722 -0.066,-4.64131 -2.36305,-7.99679 -3.43353,-13.33405 z"
       style="fill:#786be6;fill-rule:evenodd;stroke:none;stroke-width:0.26458332px;stroke-linecap:butt;stroke-linejoin:miter;stroke-opacity:1;fill-opacity:1"
       inkscape:connector-curvature="0" />
    <path
       style="font-style:normal;font-variant:normal;font-weight:normal;font-stretch:normal;font-size:medium;line-height:125%;font-family:'Computer Modern';-inkscape-font-specification:'Computer Modern';letter-spacing:0px;word-spacing:0px;fill:#000000;fill-opacity:1;stroke:none;stroke-width:1.90330112px;stroke-linecap:butt;stroke-linejoin:miter;stroke-opacity:1"
       d="m 77.43264,68.78817 -10.15649,5.86316 -10.15543,-5.86322 -1.71277,2.96662 1.05432,0.60872 c 1.97799,1.14198 3.64436,2.36787 1.81721,5.53261 L 46.57389,98.17074 34.86828,118.44543 c -1.82715,3.16472 -3.72199,2.33455 -5.69998,1.19255 l -1.05434,-0.60871 -1.71277,2.96664 10.15623,5.8637 -2.3e-4,11.72686 3.42544,-7e-5 2.3e-4,-1.21783 c 0,-2.28397 0.22813,-4.33991 3.88247,-4.33991 l 23.41087,4e-4 23.41134,-4.2e-4 c 3.65434,-1e-5 3.88362,2.05613 3.88358,4.34011 l -2.5e-4,1.21787 3.42544,-9e-5 -5.6e-4,-11.72739 10.15645,-5.86314 -1.71264,-2.96656 -1.05408,0.60832 c -1.97796,1.14198 -3.87331,1.9716 -5.70048,-1.1932 L 87.97923,98.17034 76.27391,77.89529 c -1.82713,-3.16476 -0.16078,-4.39028 1.81724,-5.53224 l 1.05413,-0.60836 z M 67.2764,80.73068 c 0.37068,0.31112 0.69803,0.75617 1.02783,1.32746 l 10.43025,18.06547 -11.45781,6.61529 -11.45768,-6.61507 10.43006,-18.06538 c 0.32964,-0.57096 0.65693,-1.01665 1.02735,-1.32777 z m 14.38933,24.46987 10.43019,18.06551 c 0.32975,0.57108 0.55115,1.07729 0.63539,1.55367 -0.45465,0.16527 -1.00377,0.2266 -1.66326,0.22663 l -20.86023,-1.1e-4 1.1e-4,-13.23041 z m -28.77789,1.7e-4 11.4577,6.6151 -1.5e-4,13.2304 -20.86026,-1.1e-4 c -0.65971,0 -1.20872,-0.0611 -1.66354,-0.22644 0.0844,-0.47623 0.30654,-0.98257 0.6362,-1.55359 z"
       id="path1111"
       inkscape:connector-curvature="0" />
  </g>
</svg>
